<?xml version="1.0" encoding="UTF-8"?>
<svg id="Layer_2" data-name="Layer 2" xmlns="http://www.w3.org/2000/svg" viewBox="0 0 253.34 56.18">
  <defs>
    <style>
      .cls-1 {
        fill: #e00000;
      }
    </style>
  </defs>
  <g id="Layer_1-2" data-name="Layer 1">
    <g>
      <g>
        <path d="M101.56,24.84c0-11.86,8.44-20.52,19.94-20.52,8.44,0,14.7,4.81,16.78,10.48l-6.47,3.1c-1.55-4.12-5.24-6.95-10.32-6.95-7.48,0-12.61,5.61-12.61,13.9s5.29,13.95,12.77,13.95c6.04,0,11.28-3.74,11.28-9.83v-.21h-11.44v-6.15h18.17v22.18h-6.57v-3.96c-3.05,3.1-7.21,4.6-11.44,4.6-11.38,0-20.1-8.71-20.1-20.58Z"/>
        <path d="M144.26,33.5V15.7h7v17.21c0,3.69,2.4,6.09,5.88,6.09s5.88-2.41,5.88-6.25V15.7h7v22.18c0,2.62.16,4.38.59,6.89h-6.57c-.27-1.5-.48-2.62-.53-3.63-1.6,2.83-4.6,4.28-8.28,4.28-6.84,0-10.96-4.81-10.96-11.92Z"/>
        <path d="M180.12,2.72c2.3,0,4.28,2.03,4.28,4.33s-1.98,4.22-4.28,4.22-4.28-1.92-4.28-4.22,1.98-4.33,4.28-4.33ZM176.54,15.7h7v29.07h-7V15.7Z"/>
        <path d="M188.83,30.24c0-8.55,6.36-15.18,14.64-15.18,3.74,0,6.84,1.28,8.93,3.58V4.32h7v33.56c0,2.99.16,4.81.64,6.89h-6.63c-.27-1.28-.48-2.3-.53-3.31-2.14,2.57-5.56,3.95-9.35,3.95-8.44,0-14.7-6.63-14.7-15.18ZM204.28,39.01c4.7,0,8.12-3.63,8.12-8.76s-3.42-8.77-8.12-8.77-8.18,3.74-8.18,8.77,3.42,8.76,8.18,8.76Z"/>
        <path d="M224.74,30.19c0-8.71,6.25-15.13,14.43-15.13,9.03,0,14.16,6.47,14.16,14.22,0,1.07-.11,2.14-.37,2.94h-20.95c.43,4.28,3.53,7.05,7.75,7.05,3.21,0,5.45-1.5,6.73-3.74l5.67,2.78c-1.76,4.17-6.52,7.11-12.45,7.11-8.93,0-14.96-6.73-14.96-15.23ZM245.86,26.87c-.32-3.58-2.99-6.04-6.68-6.04s-6.2,2.19-7,6.04h13.68Z"/>
      </g>
      <g>
        <path class="cls-1" d="M14.62,29.63C4.8,28.49,0,21.47,0,14.5,0,7.19,5.31,0,15.53,0c5.14,0,10.51,2,14.79,6.05,1.6-1.03,4.85-2,8.51-2,5.82,0,11.59,2.57,11.59,9.19,0,13.08-20.56,16.5-30.32,16.44-.69-1.2-.63-3.03-.06-4.17,5.48.34,26.15-2.23,26.15-12.22,0-3.71-3.77-5.02-7.37-5.02-2.45,0-4.34.46-5.48,1.31,1.08,1.54,2,3.2,2.8,5.02.69,1.54-.97,2.74-2.34,2.74-.63,0-1.2-.29-1.43-.91-3.08-8.05-10.11-12.16-16.61-12.16-7.54,0-11.42,5.08-11.42,10.28,0,4.91,3.54,9.93,10.68,10.62,1.2-6.62,5.08-11.93,10.62-16.22.8-.06,2.85,2.57,2.85,3.14-2.23,1.37-9.65,7.48-9.65,17.24,0,5.77,2.8,9.48,8.74,9.48,11.31,0,15.53-10.33,16.61-11.42.51-.51,1.03-.69,1.48-.69,1.31,0,2.34,1.37,2,2.28-4.97,12.62-14.45,27.18-25.98,27.18-5.14,0-9.48-3.88-9.48-9.19,0-1.48.23-3.43,2.11-3.43,1.71,0,1.94,1.2,2.06,2.68.23,3.25,1.31,5.88,5.42,5.88,5.48,0,10.68-5.77,14.27-10.91-2.74,1.26-5.71,1.88-8.62,1.88-9.25,0-12.85-7.25-12.85-13.47Z"/>
        <path class="cls-1" d="M58.87,19.64c.34,0,.74.06,1.08.23.8.46,1.6,1.71.8,2.85-2.23,2.91-7.71,12.85-7.71,15.36,0,.51.4,1.26,1.48,1.26,1.94,0,3.83-2.11,7.02-7.37.51-.74,1.26-1.2,2-1.2.4,0,.74.11,1.08.34,1.08.69,1.14,1.48.57,2.46-4.28,7.54-6.39,9.93-11.08,9.93-2.4,0-5.31-2-5.31-5.31,0-4.91,5.08-12.96,8.17-17.64.4-.63,1.14-.91,1.88-.91ZM62.64,18.1c-3.77-.74-2.4-5.71,1.77-5.71s2.91,6.17-1.77,5.71Z"/>
        <path class="cls-1" d="M62.18,27.81c.97,0,1.6.57,2.11,1.26l.46.63c.06.11.11.17.17.23,4-7.14,12.45-24.44,18.44-24.44,1.6,0,3.65.86,3.71,2.91.06,1.37-1.08,2.06-1.66,2.06-.74,0-1.14-.69-1.94-.69-3.2,0-13.59,19.93-15.76,24.32,1.2,1.31,2.23,1.88,3.2,1.88,1.94,0,3.25-2.51,4.17-4,.46-.74,1.26-1.2,2-1.2.4,0,.74.11,1.08.34,1.03.69,1.14,1.48.57,2.46-1.71,2.97-4.22,6.57-7.77,6.57-1.6,0-3.14-.46-5.2-2.17-3.37,6.68-8.68,16.33-12.28,16.33-1.14,0-2.23-.8-2.4-1.88-.17-.91.11-1.66.57-1.94,2.4-1.43,3.71-2.86,6.05-6.74,1.77-2.91,3.37-5.94,4.91-8.56.46.4.63.57,1.2.8-1.48-1.6-2.34-3.14-3.03-4.51-1.08-2.28,0-3.65,1.37-3.65Z"/>
        <path class="cls-1" d="M88.85,11.25c.34,0,.74.06,1.08.23.8.46,1.37,1.94.97,2.57-.86,1.31-1.88,2.97-3.08,4.74h.57c2.85,0,3.03,4.28,0,4.28h-3.25c-4,6.34-7.94,13.19-7.94,15.07,0,.74.34,1.2,1.31,1.2,1.88,0,3.77-2.23,6.91-7.37.51-.74,1.26-1.2,2-1.2.4,0,.74.11,1.09.34,1.03.69,1.14,1.48.57,2.46-4.28,7.54-6.4,9.93-11.08,9.93-2.34,0-5.14-1.6-5.14-5.48,0-2.68,3.54-9.02,7.19-14.96h-1.2c-2.11,0-2.57-4.23.46-4.28h3.43c1.83-2.85,3.48-5.37,4.45-6.91.23-.4.91-.63,1.66-.63Z"/>
      </g>
    </g>
  </g>
</svg>